<svg xmlns="http://www.w3.org/2000/svg" xmlns:xlink="http://www.w3.org/1999/xlink" width="500" zoomAndPan="magnify" viewBox="0 0 375 374.999991" height="500" preserveAspectRatio="xMidYMid meet" version="1.0"><defs><g/></defs><rect x="-37.5" width="450" fill="#ffffff" y="-37.499999" height="449.999989" fill-opacity="1"/><rect x="-37.5" width="450" fill="#f6f6e9" y="-37.499999" height="449.999989" fill-opacity="1"/><rect x="-37.5" width="450" fill="#ffffff" y="-37.499999" height="449.999989" fill-opacity="1"/><rect x="-37.5" width="450" fill="#f6f6e9" y="-37.499999" height="449.999989" fill-opacity="1"/><path fill="#214e80" d="M 239.523438 75.007812 L 230.300781 60.941406 L 242.839844 73.511719 L 253.484375 84.183594 C 252.964844 84.980469 252.496094 85.804688 252.074219 86.65625 C 251.652344 87.507812 251.285156 88.382812 250.964844 89.277344 C 250.648438 90.171875 250.382812 91.085938 250.175781 92.011719 C 249.964844 92.9375 249.808594 93.875 249.710938 94.820312 C 249.609375 95.765625 249.566406 96.714844 249.582031 97.664062 C 249.59375 98.617188 249.660156 99.5625 249.785156 100.503906 C 249.910156 101.449219 250.089844 102.378906 250.324219 103.300781 C 250.5625 104.222656 250.847656 105.125 251.191406 106.011719 C 251.53125 106.898438 251.925781 107.765625 252.367188 108.605469 C 252.8125 109.445312 253.304688 110.253906 253.84375 111.039062 C 254.382812 111.820312 254.96875 112.566406 255.59375 113.277344 C 256.222656 113.992188 256.890625 114.664062 257.597656 115.296875 C 258.304688 115.929688 259.046875 116.519531 259.824219 117.066406 C 260.601562 117.609375 261.410156 118.105469 262.246094 118.554688 C 263.082031 119.003906 263.941406 119.402344 264.824219 119.75 C 265.707031 120.097656 266.605469 120.390625 267.523438 120.632812 C 268.441406 120.871094 269.371094 121.054688 270.308594 121.1875 C 271.25 121.316406 272.195312 121.390625 273.140625 121.40625 C 274.089844 121.425781 275.035156 121.386719 275.980469 121.292969 C 276.921875 121.195312 277.859375 121.046875 278.785156 120.839844 C 279.710938 120.632812 280.621094 120.375 281.515625 120.0625 C 282.410156 119.746094 283.285156 119.378906 284.136719 118.960938 C 284.988281 118.546875 285.8125 118.078125 286.609375 117.5625 C 287.40625 117.046875 288.167969 116.484375 288.898438 115.878906 C 289.628906 115.273438 290.324219 114.625 290.976562 113.9375 C 291.628906 113.246094 292.242188 112.523438 292.808594 111.761719 C 293.378906 111 293.898438 110.207031 294.375 109.382812 C 294.847656 108.5625 295.273438 107.710938 295.644531 106.839844 C 296.019531 105.964844 296.34375 105.070312 296.609375 104.160156 C 296.878906 103.25 297.09375 102.324219 297.253906 101.386719 C 297.410156 100.449219 297.515625 99.507812 297.5625 98.554688 C 297.613281 97.605469 297.601562 96.65625 297.539062 95.707031 C 297.472656 94.761719 297.355469 93.820312 297.179688 92.882812 C 297.003906 91.949219 296.773438 91.03125 296.488281 90.121094 C 296.203125 89.214844 295.867188 88.328125 295.476562 87.460938 C 295.089844 86.59375 294.648438 85.753906 294.160156 84.9375 C 293.671875 84.125 293.136719 83.339844 292.554688 82.589844 C 291.972656 81.839844 291.351562 81.125 290.683594 80.445312 C 290.019531 79.769531 289.316406 79.132812 288.574219 78.539062 C 287.832031 77.945312 287.0625 77.398438 286.253906 76.898438 C 285.449219 76.394531 284.617188 75.945312 283.757812 75.539062 C 282.898438 75.136719 282.019531 74.789062 281.117188 74.488281 C 280.21875 74.191406 279.304688 73.945312 278.375 73.757812 C 277.445312 73.566406 276.507812 73.433594 275.5625 73.355469 C 274.617188 73.277344 273.671875 73.253906 272.722656 73.289062 C 271.773438 73.324219 270.832031 73.414062 269.894531 73.558594 C 268.957031 73.707031 268.03125 73.90625 267.121094 74.164062 C 266.207031 74.417969 265.3125 74.726562 264.433594 75.089844 L 276.089844 92.855469 L 260.457031 77.191406 L 249.8125 66.519531 C 250.160156 65.898438 250.476562 65.261719 250.75 64.605469 C 251.027344 63.949219 251.265625 63.28125 251.464844 62.597656 C 251.664062 61.910156 251.820312 61.21875 251.941406 60.515625 C 252.058594 59.816406 252.136719 59.109375 252.175781 58.398438 C 252.214844 57.6875 252.210938 56.976562 252.164062 56.265625 C 252.121094 55.554688 252.035156 54.847656 251.910156 54.148438 C 251.785156 53.445312 251.617188 52.753906 251.414062 52.074219 C 251.207031 51.390625 250.964844 50.722656 250.679688 50.070312 C 250.398438 49.417969 250.078125 48.78125 249.722656 48.167969 C 249.367188 47.550781 248.976562 46.957031 248.554688 46.386719 C 248.128906 45.8125 247.671875 45.269531 247.1875 44.75 C 246.699219 44.230469 246.183594 43.742188 245.640625 43.285156 C 245.097656 42.828125 244.53125 42.402344 243.9375 42.007812 C 243.34375 41.617188 242.730469 41.257812 242.097656 40.9375 C 241.464844 40.613281 240.8125 40.332031 240.148438 40.085938 C 239.480469 39.835938 238.800781 39.628906 238.113281 39.460938 C 237.421875 39.296875 236.722656 39.167969 236.019531 39.082031 C 235.3125 38.992188 234.605469 38.949219 233.894531 38.941406 C 233.1875 38.9375 232.476562 38.972656 231.773438 39.050781 C 231.066406 39.128906 230.367188 39.246094 229.671875 39.40625 C 228.980469 39.5625 228.300781 39.761719 227.628906 40 C 226.960938 40.234375 226.308594 40.511719 225.667969 40.824219 C 225.03125 41.136719 224.414062 41.484375 223.816406 41.871094 C 223.21875 42.253906 222.644531 42.671875 222.09375 43.125 C 221.542969 43.574219 221.023438 44.054688 220.527344 44.566406 C 220.035156 45.078125 219.570312 45.617188 219.140625 46.183594 C 218.707031 46.75 218.308594 47.335938 217.945312 47.949219 C 217.582031 48.558594 217.253906 49.191406 216.960938 49.839844 C 216.671875 50.488281 216.417969 51.152344 216.203125 51.832031 C 215.988281 52.511719 215.8125 53.199219 215.675781 53.898438 C 215.542969 54.597656 215.445312 55.300781 215.394531 56.011719 C 215.339844 56.722656 215.324219 57.433594 215.351562 58.144531 C 215.382812 58.855469 215.449219 59.5625 215.558594 60.265625 C 215.667969 60.972656 215.816406 61.667969 216.007812 62.351562 C 216.195312 63.039062 216.425781 63.710938 216.691406 64.371094 C 216.960938 65.03125 217.265625 65.671875 217.605469 66.296875 C 217.945312 66.921875 218.324219 67.527344 218.734375 68.105469 C 219.144531 68.6875 219.585938 69.242188 220.0625 69.773438 C 220.535156 70.300781 221.039062 70.800781 221.574219 71.273438 C 222.105469 71.746094 222.664062 72.183594 223.246094 72.589844 C 223.828125 72.996094 224.433594 73.367188 225.058594 73.707031 C 225.6875 74.042969 226.328125 74.339844 226.988281 74.601562 C 227.648438 74.863281 228.324219 75.089844 229.007812 75.273438 C 229.695312 75.457031 230.390625 75.601562 231.09375 75.703125 C 231.796875 75.804688 232.503906 75.867188 233.210938 75.890625 C 233.921875 75.914062 234.632812 75.894531 235.339844 75.832031 C 236.046875 75.769531 236.75 75.671875 237.445312 75.527344 C 238.140625 75.386719 238.824219 75.203125 239.5 74.984375 Z M 239.523438 75.007812 " fill-opacity="1" fill-rule="nonzero"/><path fill="#214e80" d="M 329.84375 119.703125 C 329.113281 118.972656 328.332031 118.308594 327.492188 117.710938 C 326.65625 117.113281 325.773438 116.589844 324.847656 116.136719 C 323.921875 115.6875 322.964844 115.316406 321.976562 115.027344 C 320.988281 114.738281 319.984375 114.535156 318.964844 114.414062 C 317.941406 114.292969 316.917969 114.257812 315.890625 114.308594 C 314.859375 114.359375 313.84375 114.496094 312.839844 114.71875 C 311.835938 114.941406 310.855469 115.242188 309.902344 115.628906 C 308.949219 116.015625 308.03125 116.480469 307.15625 117.019531 C 306.277344 117.558594 305.453125 118.167969 304.675781 118.847656 C 303.902344 119.527344 303.191406 120.265625 302.539062 121.0625 C 301.886719 121.863281 301.304688 122.710938 300.796875 123.605469 C 300.285156 124.5 299.855469 125.433594 299.5 126.402344 C 299.144531 127.371094 298.875 128.363281 298.683594 129.375 C 298.496094 130.390625 298.394531 131.414062 298.375 132.445312 C 298.359375 133.476562 298.425781 134.503906 298.578125 135.523438 C 298.734375 136.542969 298.96875 137.542969 299.289062 138.523438 L 313.320312 129.273438 L 300.785156 141.84375 L 290.136719 152.515625 C 289.34375 151.996094 288.523438 151.527344 287.671875 151.105469 C 286.824219 150.683594 285.953125 150.3125 285.058594 149.996094 C 284.164062 149.675781 283.253906 149.410156 282.332031 149.199219 C 281.40625 148.992188 280.472656 148.835938 279.53125 148.734375 C 278.585938 148.636719 277.640625 148.59375 276.691406 148.605469 C 275.746094 148.617188 274.800781 148.6875 273.863281 148.8125 C 272.921875 148.9375 271.992188 149.117188 271.074219 149.351562 C 270.15625 149.589844 269.253906 149.878906 268.367188 150.21875 C 267.484375 150.5625 266.625 150.957031 265.785156 151.402344 C 264.949219 151.84375 264.136719 152.339844 263.359375 152.878906 C 262.578125 153.421875 261.835938 154.003906 261.125 154.636719 C 260.414062 155.265625 259.742188 155.933594 259.109375 156.644531 C 258.480469 157.351562 257.890625 158.097656 257.347656 158.875 C 256.804688 159.652344 256.308594 160.460938 255.863281 161.300781 C 255.414062 162.136719 255.015625 163 254.671875 163.882812 C 254.324219 164.769531 254.03125 165.671875 253.792969 166.589844 C 253.554688 167.511719 253.367188 168.441406 253.238281 169.382812 C 253.109375 170.324219 253.035156 171.269531 253.019531 172.222656 C 253 173.171875 253.039062 174.121094 253.136719 175.066406 C 253.230469 176.011719 253.378906 176.949219 253.585938 177.875 C 253.789062 178.804688 254.050781 179.71875 254.363281 180.613281 C 254.675781 181.511719 255.039062 182.386719 255.457031 183.242188 C 255.875 184.09375 256.339844 184.921875 256.851562 185.71875 C 257.367188 186.519531 257.925781 187.285156 258.53125 188.015625 C 259.136719 188.746094 259.78125 189.441406 260.46875 190.097656 C 261.15625 190.753906 261.878906 191.363281 262.636719 191.933594 C 263.398438 192.503906 264.1875 193.027344 265.007812 193.5 C 265.828125 193.976562 266.675781 194.402344 267.546875 194.777344 C 268.417969 195.152344 269.308594 195.472656 270.21875 195.742188 C 271.125 196.011719 272.050781 196.226562 272.984375 196.386719 C 273.917969 196.546875 274.859375 196.652344 275.804688 196.699219 C 276.753906 196.746094 277.699219 196.738281 278.644531 196.675781 C 279.589844 196.609375 280.53125 196.488281 281.460938 196.3125 C 282.394531 196.136719 283.3125 195.90625 284.214844 195.621094 C 285.121094 195.335938 286.003906 195 286.871094 194.609375 C 287.734375 194.21875 288.574219 193.777344 289.386719 193.289062 C 290.199219 192.796875 290.980469 192.261719 291.726562 191.679688 C 292.476562 191.097656 293.191406 190.472656 293.863281 189.804688 C 294.539062 189.136719 295.171875 188.433594 295.765625 187.691406 C 296.359375 186.949219 296.902344 186.171875 297.402344 185.367188 C 297.90625 184.558594 298.355469 183.722656 298.757812 182.863281 C 299.160156 182.003906 299.507812 181.121094 299.804688 180.21875 C 300.105469 179.316406 300.347656 178.398438 300.535156 177.464844 C 300.726562 176.535156 300.859375 175.597656 300.9375 174.648438 C 301.015625 173.699219 301.039062 172.753906 301.003906 171.800781 C 300.96875 170.851562 300.878906 169.90625 300.734375 168.96875 C 300.589844 168.03125 300.386719 167.101562 300.132812 166.1875 C 299.875 165.269531 299.570312 164.375 299.207031 163.496094 L 281.488281 175.171875 L 297.113281 159.507812 L 307.757812 148.835938 C 308.71875 149.378906 309.722656 149.828125 310.765625 150.1875 C 311.808594 150.550781 312.875 150.8125 313.964844 150.984375 C 315.054688 151.152344 316.152344 151.222656 317.253906 151.191406 C 318.359375 151.164062 319.449219 151.039062 320.53125 150.8125 C 321.609375 150.585938 322.660156 150.265625 323.683594 149.851562 C 324.707031 149.4375 325.683594 148.9375 326.617188 148.34375 C 327.550781 147.753906 328.425781 147.085938 329.238281 146.339844 C 330.050781 145.589844 330.792969 144.777344 331.457031 143.894531 C 332.125 143.015625 332.710938 142.082031 333.210938 141.09375 C 333.710938 140.109375 334.117188 139.085938 334.4375 138.027344 C 334.753906 136.96875 334.972656 135.886719 335.097656 134.789062 C 335.222656 133.691406 335.246094 132.589844 335.171875 131.484375 C 335.097656 130.382812 334.929688 129.292969 334.660156 128.21875 C 334.390625 127.148438 334.03125 126.105469 333.578125 125.097656 C 333.121094 124.089844 332.582031 123.132812 331.953125 122.222656 C 331.328125 121.3125 330.625 120.464844 329.847656 119.679688 Z M 329.84375 119.703125 " fill-opacity="1" fill-rule="nonzero"/><path fill="#214e80" d="M 231.953125 202.433594 L 241.179688 216.5 L 228.640625 203.929688 L 217.996094 193.257812 C 218.511719 192.460938 218.984375 191.636719 219.40625 190.785156 C 219.824219 189.933594 220.195312 189.058594 220.511719 188.164062 C 220.832031 187.265625 221.09375 186.355469 221.304688 185.429688 C 221.515625 184.5 221.667969 183.566406 221.769531 182.617188 C 221.867188 181.671875 221.910156 180.726562 221.898438 179.773438 C 221.886719 178.824219 221.816406 177.878906 221.691406 176.933594 C 221.566406 175.992188 221.386719 175.058594 221.152344 174.140625 C 220.917969 173.21875 220.628906 172.3125 220.289062 171.425781 C 219.945312 170.539062 219.554688 169.675781 219.109375 168.835938 C 218.667969 167.996094 218.175781 167.183594 217.636719 166.402344 C 217.097656 165.621094 216.511719 164.875 215.882812 164.160156 C 215.257812 163.449219 214.589844 162.777344 213.878906 162.140625 C 213.171875 161.507812 212.429688 160.921875 211.652344 160.375 C 210.875 159.828125 210.070312 159.332031 209.234375 158.882812 C 208.398438 158.433594 207.539062 158.035156 206.65625 157.6875 C 205.773438 157.34375 204.871094 157.046875 203.953125 156.808594 C 203.039062 156.570312 202.109375 156.382812 201.167969 156.253906 C 200.230469 156.125 199.285156 156.050781 198.335938 156.03125 C 197.390625 156.015625 196.441406 156.054688 195.5 156.148438 C 194.554688 156.242188 193.621094 156.394531 192.695312 156.601562 C 191.769531 156.804688 190.859375 157.066406 189.964844 157.378906 C 189.070312 157.695312 188.195312 158.058594 187.34375 158.476562 C 186.492188 158.894531 185.667969 159.363281 184.871094 159.878906 C 184.074219 160.394531 183.308594 160.953125 182.578125 161.5625 C 181.847656 162.167969 181.15625 162.816406 180.503906 163.503906 C 179.847656 164.191406 179.238281 164.917969 178.667969 165.679688 C 178.101562 166.441406 177.582031 167.234375 177.105469 168.054688 C 176.632812 168.878906 176.207031 169.726562 175.832031 170.601562 C 175.457031 171.476562 175.136719 172.367188 174.867188 173.28125 C 174.601562 174.191406 174.386719 175.117188 174.226562 176.054688 C 174.066406 176.992188 173.964844 177.933594 173.914062 178.882812 C 173.867188 179.832031 173.875 180.78125 173.941406 181.730469 C 174.003906 182.679688 174.125 183.621094 174.300781 184.554688 C 174.476562 185.488281 174.707031 186.410156 174.992188 187.316406 C 175.277344 188.226562 175.613281 189.113281 176 189.980469 C 176.390625 190.847656 176.832031 191.6875 177.320312 192.5 C 177.808594 193.316406 178.34375 194.097656 178.925781 194.851562 C 179.503906 195.601562 180.128906 196.316406 180.792969 196.992188 C 181.460938 197.671875 182.164062 198.304688 182.90625 198.898438 C 183.644531 199.492188 184.417969 200.042969 185.222656 200.542969 C 186.03125 201.042969 186.863281 201.496094 187.722656 201.898438 C 188.582031 202.300781 189.460938 202.652344 190.359375 202.953125 C 191.261719 203.25 192.175781 203.492188 193.105469 203.683594 C 194.035156 203.871094 194.972656 204.007812 195.917969 204.085938 C 196.863281 204.164062 197.808594 204.183594 198.757812 204.152344 C 199.703125 204.117188 200.648438 204.027344 201.585938 203.878906 C 202.519531 203.734375 203.445312 203.535156 204.359375 203.277344 C 205.273438 203.019531 206.167969 202.710938 207.046875 202.347656 L 195.390625 184.582031 L 211.019531 200.25 L 221.660156 210.921875 C 221.3125 211.539062 220.996094 212.179688 220.722656 212.835938 C 220.445312 213.492188 220.207031 214.164062 220.007812 214.847656 C 219.808594 215.53125 219.648438 216.222656 219.527344 216.925781 C 219.410156 217.628906 219.332031 218.335938 219.292969 219.046875 C 219.253906 219.757812 219.257812 220.46875 219.300781 221.179688 C 219.347656 221.894531 219.429688 222.597656 219.558594 223.300781 C 219.683594 224 219.847656 224.695312 220.054688 225.375 C 220.257812 226.058594 220.503906 226.726562 220.785156 227.378906 C 221.070312 228.035156 221.386719 228.667969 221.742188 229.285156 C 222.097656 229.902344 222.488281 230.496094 222.914062 231.070312 C 223.335938 231.640625 223.792969 232.1875 224.28125 232.707031 C 224.769531 233.222656 225.285156 233.714844 225.828125 234.171875 C 226.371094 234.632812 226.9375 235.058594 227.53125 235.449219 C 228.125 235.84375 228.738281 236.203125 229.371094 236.523438 C 230.003906 236.847656 230.65625 237.128906 231.324219 237.378906 C 231.988281 237.625 232.667969 237.832031 233.359375 238 C 234.050781 238.167969 234.746094 238.296875 235.453125 238.382812 C 236.160156 238.46875 236.867188 238.515625 237.578125 238.519531 C 238.289062 238.527344 238.996094 238.492188 239.703125 238.414062 C 240.410156 238.335938 241.109375 238.21875 241.804688 238.058594 C 242.496094 237.902344 243.179688 237.703125 243.847656 237.46875 C 244.519531 237.230469 245.171875 236.957031 245.8125 236.640625 C 246.449219 236.328125 247.070312 235.980469 247.667969 235.59375 C 248.265625 235.210938 248.839844 234.792969 249.390625 234.339844 C 249.941406 233.890625 250.460938 233.410156 250.957031 232.898438 C 251.453125 232.386719 251.914062 231.847656 252.347656 231.28125 C 252.78125 230.714844 253.179688 230.125 253.542969 229.515625 C 253.90625 228.902344 254.234375 228.273438 254.527344 227.621094 C 254.820312 226.972656 255.074219 226.308594 255.289062 225.628906 C 255.503906 224.949219 255.679688 224.261719 255.8125 223.5625 C 255.949219 222.859375 256.042969 222.15625 256.097656 221.445312 C 256.152344 220.734375 256.167969 220.023438 256.140625 219.3125 C 256.113281 218.601562 256.042969 217.890625 255.933594 217.1875 C 255.824219 216.484375 255.675781 215.789062 255.484375 215.101562 C 255.296875 214.414062 255.066406 213.742188 254.800781 213.082031 C 254.53125 212.421875 254.230469 211.777344 253.886719 211.152344 C 253.546875 210.527344 253.171875 209.925781 252.757812 209.34375 C 252.347656 208.761719 251.90625 208.207031 251.429688 207.675781 C 250.957031 207.144531 250.453125 206.644531 249.917969 206.171875 C 249.386719 205.699219 248.828125 205.261719 248.242188 204.855469 C 247.660156 204.445312 247.054688 204.074219 246.429688 203.738281 C 245.804688 203.402344 245.160156 203.101562 244.5 202.839844 C 243.835938 202.578125 243.164062 202.355469 242.476562 202.167969 C 241.789062 201.984375 241.09375 201.839844 240.390625 201.738281 C 239.6875 201.632812 238.980469 201.570312 238.273438 201.550781 C 237.5625 201.527344 236.851562 201.546875 236.144531 201.609375 C 235.433594 201.667969 234.734375 201.769531 234.035156 201.910156 C 233.339844 202.054688 232.652344 202.234375 231.976562 202.457031 Z M 231.953125 202.433594 " fill-opacity="1" fill-rule="nonzero"/><path fill="#214e80" d="M 158.15625 148.164062 L 170.695312 135.59375 L 181.339844 124.921875 C 182.136719 125.441406 182.957031 125.914062 183.808594 126.335938 C 184.65625 126.757812 185.527344 127.128906 186.421875 127.445312 C 187.316406 127.765625 188.222656 128.027344 189.148438 128.238281 C 190.074219 128.449219 191.007812 128.605469 191.949219 128.703125 C 192.890625 128.804688 193.839844 128.847656 194.785156 128.835938 C 195.734375 128.820312 196.679688 128.753906 197.617188 128.628906 C 198.558594 128.503906 199.488281 128.324219 200.40625 128.085938 C 201.324219 127.851562 202.226562 127.5625 203.109375 127.21875 C 203.996094 126.878906 204.855469 126.484375 205.695312 126.039062 C 206.53125 125.59375 207.339844 125.101562 208.121094 124.5625 C 208.898438 124.019531 209.644531 123.433594 210.355469 122.804688 C 211.066406 122.175781 211.738281 121.507812 212.367188 120.796875 C 213 120.089844 213.585938 119.34375 214.128906 118.566406 C 214.675781 117.785156 215.167969 116.976562 215.617188 116.140625 C 216.066406 115.300781 216.460938 114.441406 216.808594 113.554688 C 217.15625 112.671875 217.445312 111.769531 217.6875 110.847656 C 217.925781 109.929688 218.109375 109 218.238281 108.058594 C 218.367188 107.113281 218.441406 106.167969 218.460938 105.21875 C 218.476562 104.269531 218.4375 103.320312 218.34375 102.375 C 218.25 101.429688 218.101562 100.492188 217.894531 99.5625 C 217.691406 98.636719 217.429688 97.722656 217.117188 96.824219 C 216.804688 95.929688 216.4375 95.054688 216.023438 94.199219 C 215.605469 93.34375 215.140625 92.519531 214.625 91.71875 C 214.113281 90.921875 213.550781 90.15625 212.945312 89.425781 C 212.34375 88.691406 211.695312 88 211.011719 87.34375 C 210.324219 86.6875 209.601562 86.074219 208.839844 85.507812 C 208.082031 84.9375 207.292969 84.414062 206.472656 83.9375 C 205.648438 83.464844 204.804688 83.039062 203.933594 82.664062 C 203.0625 82.289062 202.171875 81.964844 201.261719 81.695312 C 200.351562 81.425781 199.429688 81.210938 198.496094 81.054688 C 197.5625 80.894531 196.621094 80.789062 195.671875 80.742188 C 194.726562 80.691406 193.78125 80.703125 192.835938 80.765625 C 191.886719 80.832031 190.949219 80.949219 190.015625 81.125 C 189.085938 81.304688 188.167969 81.535156 187.261719 81.820312 C 186.359375 82.105469 185.472656 82.441406 184.609375 82.832031 C 183.746094 83.222656 182.90625 83.660156 182.09375 84.152344 C 181.28125 84.640625 180.5 85.175781 179.75 85.761719 C 179.003906 86.34375 178.289062 86.96875 177.613281 87.636719 C 176.9375 88.300781 176.304688 89.007812 175.714844 89.75 C 175.121094 90.492188 174.574219 91.265625 174.074219 92.074219 C 173.574219 92.882812 173.125 93.714844 172.722656 94.578125 C 172.320312 95.4375 171.96875 96.320312 171.671875 97.222656 C 171.375 98.125 171.132812 99.042969 170.941406 99.972656 C 170.753906 100.90625 170.621094 101.84375 170.542969 102.792969 C 170.464844 103.738281 170.441406 104.6875 170.476562 105.636719 C 170.511719 106.585938 170.601562 107.53125 170.746094 108.472656 C 170.890625 109.410156 171.09375 110.339844 171.347656 111.253906 C 171.601562 112.167969 171.910156 113.066406 172.273438 113.945312 L 189.992188 102.265625 L 174.367188 117.929688 L 163.722656 128.605469 C 163.105469 128.253906 162.46875 127.9375 161.8125 127.664062 C 161.15625 127.386719 160.488281 127.148438 159.808594 126.945312 C 159.125 126.746094 158.433594 126.589844 157.734375 126.46875 C 157.03125 126.347656 156.328125 126.269531 155.617188 126.234375 C 154.910156 126.195312 154.199219 126.199219 153.492188 126.242188 C 152.78125 126.289062 152.078125 126.371094 151.378906 126.5 C 150.679688 126.625 149.988281 126.792969 149.308594 126.996094 C 148.628906 127.203125 147.960938 127.449219 147.308594 127.730469 C 146.65625 128.015625 146.023438 128.335938 145.410156 128.691406 C 144.792969 129.046875 144.203125 129.4375 143.632812 129.863281 C 143.0625 130.289062 142.519531 130.746094 142 131.234375 C 141.484375 131.722656 140.996094 132.242188 140.539062 132.785156 C 140.082031 133.332031 139.65625 133.898438 139.265625 134.496094 C 138.871094 135.089844 138.515625 135.703125 138.195312 136.339844 C 137.875 136.972656 137.589844 137.625 137.34375 138.292969 C 137.097656 138.964844 136.890625 139.644531 136.722656 140.335938 C 136.558594 141.027344 136.429688 141.726562 136.34375 142.433594 C 136.257812 143.140625 136.210938 143.851562 136.207031 144.5625 C 136.199219 145.277344 136.238281 145.988281 136.3125 146.695312 C 136.390625 147.402344 136.507812 148.105469 136.667969 148.800781 C 136.824219 149.492188 137.019531 150.175781 137.257812 150.847656 C 137.496094 151.519531 137.769531 152.175781 138.082031 152.816406 C 138.394531 153.457031 138.742188 154.074219 139.125 154.675781 C 139.507812 155.273438 139.925781 155.851562 140.375 156.402344 C 140.828125 156.953125 141.308594 157.476562 141.816406 157.972656 C 142.328125 158.464844 142.867188 158.929688 143.429688 159.363281 C 143.992188 159.796875 144.582031 160.195312 145.191406 160.5625 C 145.800781 160.925781 146.429688 161.253906 147.078125 161.546875 C 147.726562 161.839844 148.386719 162.09375 149.066406 162.308594 C 149.742188 162.523438 150.429688 162.699219 151.128906 162.835938 C 151.824219 162.972656 152.527344 163.066406 153.238281 163.121094 C 153.945312 163.175781 154.65625 163.1875 155.363281 163.160156 C 156.074219 163.132812 156.78125 163.0625 157.484375 162.953125 C 158.183594 162.84375 158.878906 162.695312 159.5625 162.503906 C 160.25 162.316406 160.921875 162.085938 161.578125 161.816406 C 162.238281 161.550781 162.878906 161.246094 163.5 160.902344 C 164.125 160.558594 164.726562 160.183594 165.304688 159.769531 C 165.882812 159.359375 166.4375 158.914062 166.96875 158.4375 C 167.496094 157.960938 167.996094 157.457031 168.464844 156.921875 C 168.933594 156.386719 169.375 155.828125 169.777344 155.246094 C 170.183594 154.660156 170.554688 154.054688 170.890625 153.425781 C 171.226562 152.796875 171.527344 152.152344 171.785156 151.488281 C 172.046875 150.828125 172.269531 150.152344 172.453125 149.464844 C 172.636719 148.777344 172.78125 148.078125 172.882812 147.375 C 172.988281 146.667969 173.050781 145.960938 173.070312 145.25 C 173.09375 144.535156 173.074219 143.824219 173.011719 143.117188 C 172.953125 142.40625 172.851562 141.703125 172.707031 141.003906 C 172.566406 140.304688 172.386719 139.617188 172.164062 138.941406 Z M 158.15625 148.164062 " fill-opacity="1" fill-rule="nonzero"/><g fill="#000000" fill-opacity="1"><g transform="translate(157.60577, 279.260871)"><g><path d="M 15.648438 0 L 18.433594 0 L 18.433594 -14.015625 L 32.160156 -14.015625 L 32.160156 -16.800781 L 1.921875 -16.800781 L 1.921875 -14.015625 L 15.648438 -14.015625 Z M 15.648438 0 "/></g></g></g><g fill="#000000" fill-opacity="1"><g transform="translate(191.685838, 279.260871)"><g><path d="M 4.703125 -11.902344 L 4.703125 -16.800781 L 1.921875 -16.800781 L 1.921875 -11.902344 C 1.921875 -9.070312 3.984375 -7.007812 6.816406 -7.007812 L 27.457031 -7.007812 L 27.457031 -4.894531 C 27.457031 -3.695312 26.542969 -2.785156 25.34375 -2.785156 L 2.640625 -2.785156 L 2.640625 0 L 25.34375 0 C 28.175781 0 30.238281 -2.0625 30.238281 -4.894531 L 30.238281 -16.800781 L 27.457031 -16.800781 L 27.457031 -9.792969 L 6.816406 -9.792969 C 5.617188 -9.792969 4.703125 -10.703125 4.703125 -11.902344 Z M 4.703125 -11.902344 "/></g></g></g><g fill="#000000" fill-opacity="1"><g transform="translate(223.845897, 279.260871)"><g><path d="M 1.921875 0 L 4.703125 0 L 4.703125 -7.007812 L 25.34375 -7.007812 C 28.175781 -7.007812 30.238281 -9.070312 30.238281 -11.902344 C 30.238281 -14.734375 28.175781 -16.800781 25.34375 -16.800781 L 1.921875 -16.800781 Z M 4.703125 -9.792969 L 4.703125 -14.015625 L 25.34375 -14.015625 C 26.542969 -14.015625 27.457031 -13.105469 27.457031 -11.902344 C 27.457031 -10.703125 26.542969 -9.792969 25.34375 -9.792969 Z M 4.703125 -9.792969 "/></g></g></g><g fill="#000000" fill-opacity="1"><g transform="translate(256.005955, 279.260871)"><g><path d="M 7.199219 -19.585938 L 13.199219 -20.304688 L 19.199219 -19.585938 L 19.199219 -22.367188 L 13.199219 -23.089844 L 7.199219 -22.367188 Z M 1.921875 0 L 24.480469 0 L 24.480469 -2.785156 L 14.59375 -2.785156 L 14.59375 -14.015625 L 24.480469 -14.015625 L 24.480469 -16.800781 L 1.921875 -16.800781 L 1.921875 -14.015625 L 11.808594 -14.015625 L 11.808594 -2.785156 L 1.921875 -2.785156 Z M 1.921875 0 "/></g></g></g><g fill="#000000" fill-opacity="1"><g transform="translate(282.406008, 279.260871)"><g><path d="M 10.078125 2.785156 L 10.078125 5.566406 L 22.078125 5.566406 L 22.078125 2.785156 Z M 1.921875 -4.894531 C 1.921875 -2.0625 3.984375 0 6.816406 0 L 25.34375 0 C 28.175781 0 30.238281 -2.0625 30.238281 -4.894531 L 30.238281 -11.902344 C 30.238281 -14.734375 28.175781 -16.800781 25.34375 -16.800781 L 6.816406 -16.800781 C 3.984375 -16.800781 1.921875 -14.734375 1.921875 -11.902344 Z M 4.703125 -4.894531 L 4.703125 -11.902344 C 4.703125 -13.105469 5.617188 -14.015625 6.816406 -14.015625 L 25.34375 -14.015625 C 26.542969 -14.015625 27.457031 -13.105469 27.457031 -11.902344 L 27.457031 -4.894531 C 27.457031 -3.695312 26.542969 -2.785156 25.34375 -2.785156 L 6.816406 -2.785156 C 5.617188 -2.785156 4.703125 -3.695312 4.703125 -4.894531 Z M 4.703125 -4.894531 "/></g></g></g></svg>